<svg xmlns="http://www.w3.org/2000/svg" viewBox="0 0 1200 280"
     width="1200" height="280" role="img"
     aria-label="Water temperature near Manchester, Puget Sound: 14.2 degrees Celsius">
  <style>
    .bg     { fill: #F2F6F7; }
    .rule   { stroke: #C2D3D8; stroke-width: 1; }
    .tick   { stroke: #C2D3D8; stroke-width: 1; stroke-dasharray: 2 5; }
    .eyebrow{ fill: #4A6A75; font: 600 13px ui-monospace, SFMono-Regular, Menlo, monospace;
              letter-spacing: 2.4px; }
    .big    { fill: #0B2B3C; font: 700 92px ui-monospace, SFMono-Regular, Menlo, monospace;
              letter-spacing: -3px; }
    .unit   { fill: #1C6E8C; font: 600 30px ui-monospace, SFMono-Regular, Menlo, monospace; }
    .sub    { fill: #4A6A75; font: 400 15px ui-monospace, SFMono-Regular, Menlo, monospace; }
    .axis   { fill: #6B8792; font: 400 12px ui-monospace, SFMono-Regular, Menlo, monospace; }
    .mid    { text-anchor: middle; }
    .foot   { fill: #7A929B; font: 400 12px ui-monospace, SFMono-Regular, Menlo, monospace; }
    .trace  { stroke: #1C6E8C; stroke-width: 2.4; fill: none;
              stroke-linejoin: round; stroke-linecap: round; }
    .fill   { fill: url(#water); }
    .meanln { stroke: #C4622D; stroke-width: 1.2; stroke-dasharray: 6 4; }
    .meanlb { fill: #C4622D; font: 600 11px ui-monospace, SFMono-Regular, Menlo, monospace;
              letter-spacing: 1px; }
    .dot    { fill: #C4622D; }
    .halo   { fill: #C4622D; opacity: 0.18; }
    @media (prefers-color-scheme: dark) {
      .bg      { fill: #0C1B22; }
      .rule,
      .tick    { stroke: #24404B; }
      .eyebrow,
      .sub     { fill: #7FA3AF; }
      .big     { fill: #EAF4F7; }
      .unit    { fill: #63C0D8; }
      .axis    { fill: #6E909C; }
      .foot    { fill: #5C7C88; }
      .trace   { stroke: #63C0D8; }
      .meanln,
      .dot     { stroke: #E8935C; fill: #E8935C; }
      .meanlb  { fill: #E8935C; }
      .halo    { fill: #E8935C; }
    }
  </style>

  <defs>
    <linearGradient id="water" x1="0" y1="0" x2="0" y2="1">
      <stop offset="0%" stop-color="#1C6E8C" stop-opacity="0.30"/>
      <stop offset="100%" stop-color="#1C6E8C" stop-opacity="0.02"/>
    </linearGradient>
  </defs>

  <rect class="bg" width="1200" height="280" rx="10"/>

  <!-- reading -->
  <text class="eyebrow" x="48" y="62">SURFACE WATER TEMPERATURE</text>
  <text class="big" x="44" y="152">14.2</text>
  <text class="unit" x="276" y="152">&#176;C</text>
  <text class="sub" x="48" y="182">57.6 &#176;F &#183; +0.3 vs 7-day mean</text>
  <text class="sub" x="48" y="208">Manchester, Puget Sound</text>
  <text class="axis" x="48" y="230">read 2026-09-10 11:00 local</text>

  <line class="rule" x1="404" y1="46" x2="404" y2="234"/>

  <!-- 7-day trace -->
  <line x1="505.1" y1="66" x2="505.1" y2="214" class="tick"/><text x="505.1" y="234" class="axis mid">Sep 4</text><line x1="604.6" y1="66" x2="604.6" y2="214" class="tick"/><text x="604.6" y="234" class="axis mid">Sep 5</text><line x1="704.2" y1="66" x2="704.2" y2="214" class="tick"/><text x="704.2" y="234" class="axis mid">Sep 6</text><line x1="803.7" y1="66" x2="803.7" y2="214" class="tick"/><text x="803.7" y="234" class="axis mid">Sep 7</text><line x1="903.3" y1="66" x2="903.3" y2="214" class="tick"/><text x="903.3" y="234" class="axis mid">Sep 8</text><line x1="1002.8" y1="66" x2="1002.8" y2="214" class="tick"/><text x="1002.8" y="234" class="axis mid">Sep 9</text><line x1="1102.4" y1="66" x2="1102.4" y2="214" class="tick"/><text x="1102.4" y="234" class="axis mid">Sep 10</text>
  <path class="fill" d="M452.0,186.1 L453.7,186.1 L455.7,186.1 L457.4,195.5 L457.8,195.5 L459.9,195.5 L462.0,195.5 L464.0,195.5 L466.1,195.5 L468.2,195.5 L470.3,195.5 L472.3,195.5 L474.4,195.5 L476.5,195.5 L478.5,186.1 L480.6,186.1 L482.7,186.1 L484.8,186.1 L486.4,186.1 L488.5,186.1 L490.6,186.1 L492.6,186.1 L494.7,186.1 L496.8,186.1 L498.9,186.1 L500.9,186.1 L503.0,186.1 L505.1,186.1 L507.2,186.1 L509.2,186.1 L511.3,186.1 L513.4,186.1 L515.5,186.1 L517.5,176.8 L519.2,176.8 L521.3,167.4 L523.3,167.4 L525.4,167.4 L527.5,167.4 L529.6,167.4 L531.6,167.4 L533.7,176.8 L535.8,167.4 L537.9,167.4 L539.9,167.4 L542.0,167.4 L544.1,167.4 L546.2,167.4 L548.2,167.4 L550.3,167.4 L552.0,167.4 L554.0,176.8 L556.1,176.8 L558.2,176.8 L560.3,176.8 L562.3,176.8 L564.4,176.8 L566.5,186.1 L568.6,186.1 L570.6,186.1 L572.7,186.1 L574.8,186.1 L576.8,195.5 L578.9,195.5 L581.0,195.5 L583.1,195.5 L584.7,195.5 L586.8,195.5 L588.9,195.5 L591.0,195.5 L593.0,195.5 L595.1,195.5 L597.2,195.5 L599.2,195.5 L601.3,186.1 L603.4,186.1 L605.5,186.1 L607.5,186.1 L609.6,186.1 L611.7,195.5 L613.8,195.5 L615.8,195.5 L617.5,195.5 L619.6,195.5 L621.6,195.5 L623.7,195.5 L625.8,195.5 L627.9,195.5 L629.9,186.1 L632.0,186.1 L634.1,186.1 L636.2,186.1 L638.2,186.1 L640.3,186.1 L642.4,186.1 L644.5,186.1 L646.5,186.1 L648.6,186.1 L650.7,186.1 L652.3,186.1 L654.4,186.1 L656.5,186.1 L658.6,186.1 L660.6,186.1 L662.7,186.1 L664.8,186.1 L666.9,186.1 L668.9,186.1 L671.0,186.1 L673.1,186.1 L675.2,186.1 L677.2,186.1 L679.3,195.5 L681.4,195.5 L683.4,195.5 L685.1,195.5 L687.2,195.5 L689.3,195.5 L691.3,195.5 L693.4,195.5 L695.5,195.5 L697.5,195.5 L699.6,195.5 L701.7,195.5 L703.8,195.5 L705.8,186.1 L707.9,195.5 L710.0,186.1 L712.1,195.5 L714.1,195.5 L716.2,186.1 L717.9,186.1 L719.9,186.1 L722.0,167.4 L724.1,158.0 L726.2,139.3 L728.2,139.3 L730.3,130.0 L732.4,139.3 L734.5,139.3 L736.5,139.3 L738.6,158.0 L740.7,158.0 L742.8,167.4 L744.8,167.4 L746.9,167.4 L749.0,167.4 L750.6,167.4 L752.7,167.4 L754.8,167.4 L756.9,167.4 L758.9,167.4 L761.0,167.4 L763.1,167.4 L765.2,167.4 L767.2,167.4 L769.3,167.4 L771.4,148.7 L773.5,148.7 L775.5,148.7 L777.6,148.7 L779.7,148.7 L781.7,158.0 L783.4,158.0 L785.5,158.0 L787.6,167.4 L789.6,167.4 L791.7,167.4 L793.8,176.8 L795.9,176.8 L797.9,176.8 L800.0,176.8 L802.1,176.8 L804.1,176.8 L806.2,167.4 L808.3,167.4 L810.4,167.4 L812.4,167.4 L814.5,167.4 L816.6,167.4 L818.3,167.4 L820.3,167.4 L822.4,158.0 L824.5,130.0 L826.5,120.6 L828.6,111.2 L830.7,111.2 L832.8,111.2 L834.8,111.2 L836.9,111.2 L839.0,111.2 L841.1,120.6 L843.1,130.0 L845.2,139.3 L847.3,139.3 L849.4,139.3 L851.0,148.7 L853.1,139.3 L855.2,139.3 L857.2,130.0 L859.3,130.0 L861.4,130.0 L863.5,130.0 L865.5,130.0 L867.6,130.0 L869.7,139.3 L871.8,139.3 L873.8,139.3 L875.9,148.7 L878.0,148.7 L880.1,148.7 L882.1,148.7 L883.8,148.7 L885.9,158.0 L887.9,158.0 L890.0,158.0 L892.1,158.0 L894.2,167.4 L896.2,167.4 L898.3,167.4 L900.4,167.4 L902.5,167.4 L904.5,167.4 L906.6,167.4 L908.7,167.4 L910.7,167.4 L912.8,167.4 L914.9,167.4 L916.6,167.4 L918.6,167.4 L920.7,167.4 L922.8,167.4 L924.8,167.4 L926.9,167.4 L929.0,148.7 L931.1,139.3 L933.1,120.6 L935.2,111.2 L937.3,101.9 L939.4,101.9 L941.4,101.9 L943.5,101.9 L945.6,111.2 L947.7,120.6 L949.3,120.6 L951.4,120.6 L953.5,101.9 L955.5,101.9 L957.6,111.2 L959.7,101.9 L961.8,101.9 L962.6,92.5 L963.8,92.5 L965.9,92.5 L968.0,101.9 L970.1,101.9 L972.1,111.2 L974.2,111.2 L976.3,120.6 L978.4,120.6 L980.4,120.6 L982.5,120.6 L984.2,120.6 L986.2,120.6 L988.3,130.0 L990.4,130.0 L992.5,130.0 L994.5,130.0 L996.6,130.0 L998.7,130.0 L1000.8,130.0 L1002.8,139.3 L1004.9,139.3 L1007.0,139.3 L1009.0,139.3 L1011.1,139.3 L1013.2,139.3 L1015.3,139.3 L1016.9,139.3 L1019.0,139.3 L1021.1,139.3 L1023.2,139.3 L1025.2,139.3 L1027.3,139.3 L1029.4,139.3 L1031.4,120.6 L1033.5,111.2 L1035.6,111.2 L1037.7,111.2 L1039.7,111.2 L1041.8,101.9 L1043.9,101.9 L1046.0,101.9 L1048.0,111.2 L1049.7,111.2 L1051.8,120.6 L1053.8,120.6 L1055.9,120.6 L1058.0,111.2 L1060.1,111.2 L1062.1,101.9 L1064.2,101.9 L1066.3,101.9 L1068.4,101.9 L1070.4,101.9 L1072.5,111.2 L1074.6,120.6 L1076.7,130.0 L1078.7,139.3 L1080.8,139.3 L1082.5,148.7 L1084.5,148.7 L1086.6,148.7 L1088.7,158.0 L1090.8,158.0 L1092.8,158.0 L1094.9,158.0 L1097.0,158.0 L1099.1,158.0 L1101.1,158.0 L1103.2,158.0 L1105.3,148.7 L1107.4,148.7 L1109.4,158.0 L1111.5,158.0 L1113.6,158.0 L1115.2,158.0 L1117.3,158.0 L1119.4,158.0 L1121.5,148.7 L1123.5,148.7 L1125.6,148.7 L1127.7,148.7 L1129.7,148.7 L1131.8,148.7 L1133.9,148.7 L1136.0,148.7 L1138.0,148.7 L1140.1,148.7 L1142.2,148.7 L1144.3,139.3 L1146.3,139.3 L1148.0,130.0 L1148.0,214 L452.0,214 Z"/>
  <path class="trace" d="M452.0,186.1 L453.7,186.1 L455.7,186.1 L457.4,195.5 L457.8,195.5 L459.9,195.5 L462.0,195.5 L464.0,195.5 L466.1,195.5 L468.2,195.5 L470.3,195.5 L472.3,195.5 L474.4,195.5 L476.5,195.5 L478.5,186.1 L480.6,186.1 L482.7,186.1 L484.8,186.1 L486.4,186.1 L488.5,186.1 L490.6,186.1 L492.6,186.1 L494.7,186.1 L496.8,186.1 L498.9,186.1 L500.9,186.1 L503.0,186.1 L505.1,186.1 L507.2,186.1 L509.2,186.1 L511.3,186.1 L513.4,186.1 L515.5,186.1 L517.5,176.8 L519.2,176.8 L521.3,167.4 L523.3,167.4 L525.4,167.4 L527.5,167.4 L529.6,167.4 L531.6,167.4 L533.7,176.8 L535.8,167.4 L537.9,167.4 L539.9,167.4 L542.0,167.4 L544.1,167.4 L546.2,167.4 L548.2,167.4 L550.3,167.4 L552.0,167.4 L554.0,176.8 L556.1,176.8 L558.2,176.8 L560.3,176.8 L562.3,176.8 L564.4,176.8 L566.5,186.1 L568.6,186.1 L570.6,186.1 L572.7,186.1 L574.8,186.1 L576.8,195.5 L578.9,195.5 L581.0,195.5 L583.1,195.5 L584.7,195.5 L586.8,195.5 L588.9,195.5 L591.0,195.5 L593.0,195.5 L595.1,195.5 L597.2,195.5 L599.2,195.5 L601.3,186.1 L603.4,186.1 L605.5,186.1 L607.5,186.1 L609.6,186.1 L611.7,195.5 L613.8,195.5 L615.8,195.5 L617.5,195.5 L619.6,195.5 L621.6,195.5 L623.7,195.5 L625.8,195.5 L627.9,195.5 L629.9,186.1 L632.0,186.1 L634.1,186.1 L636.2,186.1 L638.2,186.1 L640.3,186.1 L642.4,186.1 L644.5,186.1 L646.5,186.1 L648.6,186.1 L650.7,186.1 L652.3,186.1 L654.4,186.1 L656.5,186.1 L658.6,186.1 L660.6,186.1 L662.7,186.1 L664.8,186.1 L666.9,186.1 L668.9,186.1 L671.0,186.1 L673.1,186.1 L675.2,186.1 L677.2,186.1 L679.3,195.5 L681.4,195.5 L683.4,195.5 L685.1,195.5 L687.2,195.5 L689.3,195.5 L691.3,195.5 L693.4,195.5 L695.5,195.5 L697.5,195.5 L699.6,195.5 L701.7,195.5 L703.8,195.5 L705.8,186.1 L707.9,195.5 L710.0,186.1 L712.1,195.5 L714.1,195.5 L716.2,186.1 L717.9,186.1 L719.9,186.1 L722.0,167.4 L724.1,158.0 L726.2,139.3 L728.2,139.3 L730.3,130.0 L732.4,139.3 L734.5,139.3 L736.5,139.3 L738.6,158.0 L740.7,158.0 L742.8,167.4 L744.8,167.4 L746.9,167.4 L749.0,167.4 L750.6,167.4 L752.7,167.4 L754.8,167.4 L756.9,167.4 L758.9,167.4 L761.0,167.4 L763.1,167.4 L765.2,167.4 L767.2,167.4 L769.3,167.4 L771.4,148.7 L773.5,148.7 L775.5,148.7 L777.6,148.7 L779.7,148.7 L781.7,158.0 L783.4,158.0 L785.5,158.0 L787.6,167.4 L789.6,167.4 L791.7,167.4 L793.8,176.8 L795.9,176.8 L797.9,176.8 L800.0,176.8 L802.1,176.8 L804.1,176.8 L806.2,167.4 L808.3,167.4 L810.4,167.4 L812.4,167.4 L814.5,167.4 L816.6,167.4 L818.3,167.4 L820.3,167.4 L822.4,158.0 L824.5,130.0 L826.5,120.6 L828.6,111.2 L830.7,111.2 L832.8,111.2 L834.8,111.2 L836.9,111.2 L839.0,111.2 L841.1,120.6 L843.1,130.0 L845.2,139.3 L847.3,139.3 L849.4,139.3 L851.0,148.7 L853.1,139.3 L855.2,139.3 L857.2,130.0 L859.3,130.0 L861.4,130.0 L863.5,130.0 L865.5,130.0 L867.6,130.0 L869.7,139.3 L871.8,139.3 L873.8,139.3 L875.9,148.7 L878.0,148.7 L880.1,148.7 L882.1,148.7 L883.8,148.7 L885.9,158.0 L887.9,158.0 L890.0,158.0 L892.1,158.0 L894.2,167.4 L896.2,167.4 L898.3,167.4 L900.4,167.4 L902.5,167.4 L904.5,167.4 L906.6,167.4 L908.7,167.4 L910.7,167.4 L912.8,167.4 L914.9,167.4 L916.6,167.4 L918.6,167.4 L920.7,167.4 L922.8,167.4 L924.8,167.4 L926.9,167.4 L929.0,148.7 L931.1,139.3 L933.1,120.6 L935.2,111.2 L937.3,101.9 L939.4,101.9 L941.4,101.9 L943.5,101.9 L945.6,111.2 L947.7,120.6 L949.3,120.6 L951.4,120.6 L953.5,101.9 L955.5,101.9 L957.6,111.2 L959.7,101.9 L961.8,101.9 L962.6,92.5 L963.8,92.5 L965.9,92.5 L968.0,101.9 L970.1,101.9 L972.1,111.2 L974.2,111.2 L976.3,120.6 L978.4,120.6 L980.4,120.6 L982.5,120.6 L984.2,120.6 L986.2,120.6 L988.3,130.0 L990.4,130.0 L992.5,130.0 L994.5,130.0 L996.6,130.0 L998.7,130.0 L1000.8,130.0 L1002.8,139.3 L1004.9,139.3 L1007.0,139.3 L1009.0,139.3 L1011.1,139.3 L1013.2,139.3 L1015.3,139.3 L1016.9,139.3 L1019.0,139.3 L1021.1,139.3 L1023.2,139.3 L1025.2,139.3 L1027.3,139.3 L1029.4,139.3 L1031.4,120.6 L1033.5,111.2 L1035.6,111.2 L1037.7,111.2 L1039.7,111.2 L1041.8,101.9 L1043.9,101.9 L1046.0,101.9 L1048.0,111.2 L1049.7,111.2 L1051.8,120.6 L1053.8,120.6 L1055.9,120.6 L1058.0,111.2 L1060.1,111.2 L1062.1,101.9 L1064.2,101.9 L1066.3,101.9 L1068.4,101.9 L1070.4,101.9 L1072.5,111.2 L1074.6,120.6 L1076.7,130.0 L1078.7,139.3 L1080.8,139.3 L1082.5,148.7 L1084.5,148.7 L1086.6,148.7 L1088.7,158.0 L1090.8,158.0 L1092.8,158.0 L1094.9,158.0 L1097.0,158.0 L1099.1,158.0 L1101.1,158.0 L1103.2,158.0 L1105.3,148.7 L1107.4,148.7 L1109.4,158.0 L1111.5,158.0 L1113.6,158.0 L1115.2,158.0 L1117.3,158.0 L1119.4,158.0 L1121.5,148.7 L1123.5,148.7 L1125.6,148.7 L1127.7,148.7 L1129.7,148.7 L1131.8,148.7 L1133.9,148.7 L1136.0,148.7 L1138.0,148.7 L1140.1,148.7 L1142.2,148.7 L1144.3,139.3 L1146.3,139.3 L1148.0,130.0"/>
  <line class="meanln" x1="452" y1="158.6" x2="1148" y2="158.6"/>
  <rect class="bg" x="453" y="138.6" width="142" height="17" rx="2"/>
  <text class="meanlb" x="457" y="151.6">7-DAY MEAN 13.9 &#176;C</text>
  <circle class="halo" cx="1148.0" cy="130.0" r="8"/>
  <circle class="dot" cx="1148.0" cy="130.0" r="3.4"/>

  <text class="axis" x="1148" y="62" text-anchor="end">range 13.5&#8211;14.6 &#176;C</text>
  <text class="axis" x="452" y="62">last 7 days</text>

  <line class="rule" x1="48" y1="252" x2="1152" y2="252"/>
  <text class="foot" x="48" y="270">NOAA CO-OPS 9446484 Tacoma, WA &#183; 6-min observations &#183; rebuilt daily by GitHub Actions</text>
</svg>
